# xmcd
#
# Track frame offsets: 
#        150
#        16370
#        28720
#        41360
#        60750
#        75822
#        86529
#        98251
#        112675
#        134784
#        144683
#        154609
#
# Disc length: 2277 seconds
#
# Revision: 0
# Processed by: cddbd v1.5.2PL0 Copyright (c) Steve Scherf et al.
# Submitted via: ExactAudioCopy v1.0b1
#
DISCID=7d08e30c
DTITLE=Matuška Waldemar a Olga - Merry Christmas
DYEAR=1987
DGENRE=Country
TTITLE0=Nesem Vám noviny
TTITLE1=Zelená se louka
TTITLE2=Vánoční ukolébavka
TTITLE3=Vím já kostelíček
TTITLE4=Půjdem spolu do Betléma
TTITLE5=Veselé vánoční hody
TTITLE6=Tichá noc
TTITLE7=Jak jsi krásné Jezulátko
TTITLE8=Chtíc aby spal
TTITLE9=Pásli ovce valaši
TTITLE10=Já bych rád k Betlému
TTITLE11=Narodil se Kristus Pán
EXTD=
EXTT0=
EXTT1=
EXTT2=
EXTT3=
EXTT4=
EXTT5=
EXTT6=
EXTT7=
EXTT8=
EXTT9=
EXTT10=
EXTT11=
PLAYORDER=
